<svg width="32" height="32" viewBox="0 0 32 32" fill="none" xmlns="http://www.w3.org/2000/svg">
<path d="M6.66797 13.3341V21.3489C6.66797 21.8275 6.66797 22.0668 6.74084 22.2781C6.80528 22.465 6.91046 22.6351 7.04874 22.7763C7.20512 22.936 7.41917 23.043 7.84725 23.257L15.0472 26.857C15.3971 27.0319 15.572 27.1194 15.7554 27.1538C15.9179 27.1843 16.0847 27.1843 16.2472 27.1538C16.4306 27.1194 16.6056 27.0319 16.9554 26.857L24.1554 23.257C24.5834 23.043 24.7975 22.936 24.9539 22.7763C25.0921 22.6351 25.1973 22.465 25.2618 22.2781C25.3346 22.0668 25.3346 21.8275 25.3346 21.3489V13.3341M2.66797 11.3341L15.5243 4.90592C15.6992 4.81846 15.7866 4.77474 15.8784 4.75753C15.9596 4.74228 16.043 4.74228 16.1242 4.75753C16.216 4.77474 16.3034 4.81846 16.4783 4.90592L29.3346 11.3341L16.4783 17.7622C16.3034 17.8497 16.216 17.8934 16.1242 17.9106C16.043 17.9259 15.9596 17.9259 15.8784 17.9106C15.7866 17.8934 15.6992 17.8497 15.5243 17.7622L2.66797 11.3341Z" stroke="#3535E0" stroke-width="2" stroke-linecap="round" stroke-linejoin="round"/>
</svg>
