<svg width="20" height="20" viewBox="0 0 20 20" fill="none" xmlns="http://www.w3.org/2000/svg">
<path d="M10.0013 17.5L9.91792 17.3749C9.33906 16.5066 9.04962 16.0725 8.66722 15.7582C8.32868 15.4799 7.93861 15.2712 7.51931 15.1438C7.04568 15 6.52389 15 5.48032 15H4.33464C3.40121 15 2.9345 15 2.57798 14.8183C2.26438 14.6586 2.00941 14.4036 1.84962 14.09C1.66797 13.7335 1.66797 13.2668 1.66797 12.3333V5.16667C1.66797 4.23325 1.66797 3.76654 1.84962 3.41002C2.00941 3.09641 2.26438 2.84144 2.57798 2.68166C2.9345 2.5 3.40121 2.5 4.33464 2.5H4.66797C6.53481 2.5 7.46823 2.5 8.18127 2.86331C8.80848 3.18289 9.31841 3.69282 9.63799 4.32003C10.0013 5.03307 10.0013 5.96649 10.0013 7.83333M10.0013 17.5V7.83333M10.0013 17.5L10.0847 17.3749C10.6635 16.5066 10.953 16.0725 11.3354 15.7582C11.6739 15.4799 12.064 15.2712 12.4833 15.1438C12.9569 15 13.4787 15 14.5223 15H15.668C16.6014 15 17.0681 15 17.4246 14.8183C17.7382 14.6586 17.9932 14.4036 18.153 14.09C18.3346 13.7335 18.3346 13.2668 18.3346 12.3333V5.16667C18.3346 4.23325 18.3346 3.76654 18.153 3.41002C17.9932 3.09641 17.7382 2.84144 17.4246 2.68166C17.0681 2.5 16.6014 2.5 15.668 2.5H15.3346C13.4678 2.5 12.5344 2.5 11.8213 2.86331C11.1941 3.18289 10.6842 3.69282 10.3646 4.32003C10.0013 5.03307 10.0013 5.96649 10.0013 7.83333" stroke="#86869C" stroke-width="1.5" stroke-linecap="round" stroke-linejoin="round"/>
</svg>
