<svg width="32" height="32" viewBox="0 0 32 32" fill="none" xmlns="http://www.w3.org/2000/svg">
<path d="M10.668 28V9.33333C10.668 8.09337 10.668 7.47339 10.8043 6.96472C11.1741 5.58436 12.2523 4.50617 13.6327 4.1363C14.1414 4 14.7613 4 16.0013 4C17.2413 4 17.8612 4 18.3699 4.1363C19.7503 4.50617 20.8285 5.58436 21.1983 6.96472C21.3346 7.47339 21.3346 8.09337 21.3346 9.33333V28M6.93464 28H25.068C26.5614 28 27.3082 28 27.8786 27.7094C28.3804 27.4537 28.7883 27.0457 29.044 26.544C29.3346 25.9735 29.3346 25.2268 29.3346 23.7333V13.6C29.3346 12.1065 29.3346 11.3598 29.044 10.7894C28.7883 10.2876 28.3804 9.87965 27.8786 9.62398C27.3082 9.33333 26.5614 9.33333 25.068 9.33333H6.93464C5.44116 9.33333 4.69443 9.33333 4.12399 9.62398C3.62223 9.87965 3.21428 10.2876 2.95862 10.7894C2.66797 11.3598 2.66797 12.1065 2.66797 13.6V23.7333C2.66797 25.2268 2.66797 25.9735 2.95862 26.544C3.21428 27.0457 3.62223 27.4537 4.12399 27.7094C4.69443 28 5.44116 28 6.93464 28Z" stroke="currentColor" stroke-width="2" stroke-linecap="round" stroke-linejoin="round"/>
</svg>
