<svg width="97" height="26" viewBox="0 0 97 26" fill="none" xmlns="http://www.w3.org/2000/svg">
  <path fill-rule="evenodd" clip-rule="evenodd" d="M74.7527 0.417332L62.7846 13.2617L62.7688 13.2785L52.9867 23.458C52.7566 23.6974 52.4329 23.8237 52.1015 23.8032C51.7701 23.7828 51.4643 23.6177 51.2655 23.3518L36.4406 3.53215L19.1019 22.864C18.789 23.2129 18.2933 23.3326 17.8556 23.1651C17.4179 22.9976 17.1289 22.5775 17.1289 22.1088V2.88084H0V0.618727H18.2599C18.8846 0.618727 19.391 1.12512 19.391 1.74978V19.1537L35.6778 0.994591C35.9041 0.742319 36.2315 0.604789 36.5701 0.619844C36.9086 0.634899 37.2226 0.800954 37.4255 1.07231L52.2788 20.9299L60.4432 12.4338L51.2655 0.619844L53.593 0.468854L62.0053 10.7703L71.5562 0.417332H74.7527Z" fill="#FFFFFF"/>
  <path d="M83.5752 0.0583038C90.5705 0.235295 96.1873 5.96175 96.1875 12.9997L96.1826 13.3337C96.0056 20.3291 90.2793 25.946 83.2412 25.946L82.9072 25.9411C79.1662 25.8462 75.8217 24.1625 73.5176 21.5417L74.2148 19.1901C76.1877 22.0618 79.4941 23.9458 83.2412 23.946C89.2863 23.946 94.1875 19.0448 94.1875 12.9997C94.1873 6.95475 89.2862 2.0544 83.2412 2.0544C81.2159 2.05449 79.3205 2.6071 77.6934 3.56612V1.30049C79.3748 0.501647 81.2558 0.0544745 83.2412 0.0543976L83.5752 0.0583038Z" fill="#FFFFFF"/>
  
  <!-- Right anchor inside the O (net 4px left shift) -->
  <path fill-rule="evenodd" clip-rule="evenodd" d="M76.0189 14.2622L74.5098 11.9929L76.3934 10.7403L78.843 14.4239L76.033 17.7516L74.3047 16.2922L76.0189 14.2622Z" fill="#FFFFFF"/>
  
  <!-- Underscore path (blinks, net 4px left shift) -->
  <path fill-rule="evenodd" clip-rule="evenodd" d="M86.4914 18.1503H79.7051V15.8882H86.4914V18.1503Z" fill="#FFFFFF">
    <animate attributeName="opacity" values="1;0;1" dur="1s" repeatCount="indefinite"/>
  </path>
</svg>
