<svg width="32" height="32" viewBox="0 0 32 32" fill="none" xmlns="http://www.w3.org/2000/svg">
<path d="M29.3346 12H2.66797M8.0013 23.3333L11.3346 20L8.0013 16.6667M14.668 23.3333L20.0013 23.3333M2.66797 10.4L2.66797 21.6C2.66797 23.8402 2.66797 24.9603 3.10394 25.816C3.48744 26.5686 4.09936 27.1805 4.85201 27.564C5.70765 28 6.82776 28 9.06797 28H22.9346C25.1748 28 26.295 28 27.1506 27.564C27.9032 27.1805 28.5152 26.5686 28.8987 25.816C29.3346 24.9603 29.3346 23.8402 29.3346 21.6V10.4C29.3346 8.15979 29.3346 7.03969 28.8987 6.18404C28.5152 5.43139 27.9032 4.81947 27.1506 4.43598C26.295 4 25.1748 4 22.9346 4L9.06797 4C6.82776 4 5.70765 4 4.85201 4.43597C4.09936 4.81947 3.48744 5.43139 3.10394 6.18404C2.66797 7.03968 2.66797 8.15979 2.66797 10.4Z" stroke="currentColor" stroke-width="2" stroke-linecap="round" stroke-linejoin="round"/>
</svg>
